<svg data-v-0dd9719b="" version="1.0" xmlns="http://www.w3.org/2000/svg" xmlns:xlink="http://www.w3.org/1999/xlink" width="100%" height="100%" viewBox="110 76 120.000000 100.000000" preserveAspectRatio="xMidYMid meet" color-interpolation-filters="sRGB" style="margin: auto;"> <rect data-v-0dd9719b="" x="0" y="0" width="100%" height="100%" fill="#fff" fill-opacity="0" class="background"></rect> <!----> <g data-v-0dd9719b="" fill="#3a2b1a" class="newinitialsvg-g newinitialsvg" transform="translate(121.2125015258789,95.17749977111816)"><g class="tp-name"><g transform="translate(0, 0)"><g data-gra="path-name" fill="#3a2b1a" transform="translate(0,6)"><g transform="scale(1)"><path d="M9.36 0L9.36 0Q6.50 0 6.50-2.86L6.50-2.86L6.50-44.52Q6.50-46.02 7.61-46.87L7.61-46.87Q8.64-47.65 10.27-47.65L10.27-47.65Q12.74-47.65 13.78-45.83L13.78-45.83L30.10-17.62L35.16-7.80L35.49-7.80Q35.43-8.64 35.30-10.40L35.30-10.40Q34.71-18.85 34.71-22.88L34.71-22.88L34.71-44.79Q34.71-47.65 37.57-47.65L37.57-47.65Q40.43-47.65 40.43-44.79L40.43-44.79L40.43-3.06Q40.43-1.63 39.33-0.78L39.33-0.78Q38.29 0 36.73 0L36.73 0Q34.32 0 33.22-1.76L33.22-1.76L16.90-30.10L11.77-39.91L11.51-39.91Q11.57-38.55 11.77-35.75L11.77-35.75Q12.22-28.60 12.22-25.03L12.22-25.03L12.22-2.86Q12.22 0 9.36 0Z" transform="translate(-6.5, 47.645)"></path></g></g></g><g class="tp-graph" transform="translate(37.93, 0)" mask="url(#f5f7c022-97f2-4718-b0c8-f06b4d3e7ce8)"><rect data-gra="graph-name" fill="#3a2b1a" x="0" y="0" width="59.645" height="59.645" rx="29.8225"></rect> <g data-gra="path-name" transform="translate(13.536100158691408,7.905799999999992)"><g transform="scale(0.9600000000000002)" fill="#3a2b1a"><path d="M9.36 0L9.36 0Q6.50 0 6.50-2.86L6.50-2.86L6.50-44.52Q6.50-46.02 7.61-46.87L7.61-46.87Q8.64-47.65 10.27-47.65L10.27-47.65Q12.74-47.65 13.78-45.83L13.78-45.83L30.10-17.62L35.16-7.80L35.49-7.80Q35.43-8.64 35.30-10.40L35.30-10.40Q34.71-18.85 34.71-22.88L34.71-22.88L34.71-44.79Q34.71-47.65 37.57-47.65L37.57-47.65Q40.43-47.65 40.43-44.79L40.43-44.79L40.43-3.06Q40.43-1.63 39.33-0.78L39.33-0.78Q38.29 0 36.73 0L36.73 0Q34.32 0 33.22-1.76L33.22-1.76L16.90-30.10L11.77-39.91L11.51-39.91Q11.57-38.55 11.77-35.75L11.77-35.75Q12.22-28.60 12.22-25.03L12.22-25.03L12.22-2.86Q12.22 0 9.36 0Z" transform="translate(-6.5, 47.645)"></path></g></g></g></g> <!----></g><mask id="f5f7c022-97f2-4718-b0c8-f06b4d3e7ce8"><rect data-gra="graph-name" x="0" y="0" width="59.645" height="59.645" rx="29.8225" fill="white"></rect> <g data-gra="path-name" transform="translate(13.536100158691408,7.905799999999992)" fill="black"><g transform="scale(0.9600000000000002)"><path d="M9.36 0L9.36 0Q6.50 0 6.50-2.86L6.50-2.86L6.50-44.52Q6.50-46.02 7.61-46.87L7.61-46.87Q8.64-47.65 10.27-47.65L10.27-47.65Q12.74-47.65 13.78-45.83L13.78-45.83L30.10-17.62L35.16-7.80L35.49-7.80Q35.43-8.64 35.30-10.40L35.30-10.40Q34.71-18.85 34.71-22.88L34.71-22.88L34.71-44.79Q34.71-47.65 37.57-47.65L37.57-47.65Q40.43-47.65 40.43-44.79L40.43-44.79L40.43-3.06Q40.43-1.63 39.33-0.78L39.33-0.78Q38.29 0 36.73 0L36.73 0Q34.32 0 33.22-1.76L33.22-1.76L16.90-30.10L11.77-39.91L11.51-39.91Q11.57-38.55 11.77-35.75L11.77-35.75Q12.22-28.60 12.22-25.03L12.22-25.03L12.22-2.86Q12.22 0 9.36 0Z" transform="translate(-6.5, 47.645)"></path></g></g></mask><defs v-gra="od"></defs></svg>
